# xmcd
#
# Track frame offsets: 
#        150
#        41466
#        69815
#        92462
#        105226
#        120066
#
# Disc length: 1840 seconds
#
# Revision: 0
# Processed by: cddbd v1.5.2PL0 Copyright (c) Steve Scherf et al.
# Submitted via: ExactAudioCopy v1.0b3
#
DISCID=31072e06
DTITLE=Cream - Goodbye (MFSL UDCD 681)
DYEAR=1969
DGENRE=Blues
TTITLE0=I'm So Glad
TTITLE1=Politician
TTITLE2=Sitting On Top Of The World
TTITLE3=Badge
TTITLE4=Doing That Scrapyard Thing
TTITLE5=What A Bringdown
EXTD=
EXTT0=
EXTT1=
EXTT2=
EXTT3=
EXTT4=
EXTT5=
PLAYORDER=
